<svg width="436" height="214" viewBox="0 0 436 214" fill="none" xmlns="http://www.w3.org/2000/svg">
<g opacity="0.16">
<mask id="mask0_84_371" style="mask-type:alpha" maskUnits="userSpaceOnUse" x="0" y="0" width="436" height="214">
<rect width="436" height="214" rx="24" fill="#181059"/>
</mask>
<g mask="url(#mask0_84_371)">
<path d="M70.9814 -190.411C117.736 -168.753 42.4554 21.0164 269.001 21.0164C388.638 21.0164 362.854 176.063 435.049 187.064" stroke="#F6F5FA"/>
<path d="M200.933 -240.947C247.687 -219.289 172.407 -29.5198 398.952 -29.5198C518.589 -29.5198 492.806 125.527 565 136.528" stroke="#F6F5FA"/>
<path d="M-135.289 -57.6397C-59.4053 -71.385 95.9571 -71.4047 64.7937 9.63951C13.2261 143.748 134.64 275.501 458.771 301.545" stroke="#F6F5FA"/>
<path d="M-275.553 -7.65428C-181.752 -24.6175 10.2928 -24.6418 -28.2286 75.376C-91.9719 240.881 58.1088 403.48 458.771 435.62" stroke="#F6F5FA"/>
<path d="M-372.5 75.974C-266.316 56.7646 -48.9163 56.737 -92.5234 169.999C-164.682 357.42 5.21238 541.55 458.771 577.947" stroke="#F6F5FA"/>
</g>
</g>
</svg>
