<svg width="229" height="69" viewBox="0 0 229 69" fill="none" xmlns="http://www.w3.org/2000/svg">
<g clip-path="url(#clip0_84_172)">
<path d="M67.0465 60.9358C65.3976 60.9358 63.816 60.2815 62.6499 59.1168C61.4839 57.9522 60.8289 56.3725 60.8289 54.7253C60.8289 53.0781 61.4839 51.4985 62.6499 50.3338C63.816 49.169 65.3976 48.5148 67.0465 48.5148C67.8746 48.4894 68.6975 48.651 69.4544 48.9874C70.2112 49.3238 70.8824 49.8264 71.4177 50.4578L70.3575 51.4898C69.9642 50.9949 69.4591 50.5998 68.8836 50.3371C68.3083 50.0742 67.6787 49.951 67.0465 49.9777C66.4396 49.9634 65.8361 50.0722 65.2724 50.2974C64.7088 50.5225 64.1967 50.8596 63.767 51.2879C62.9054 52.2258 62.4274 53.4525 62.4274 54.7253C62.4274 55.9982 62.9054 57.2248 63.767 58.1627C64.1967 58.5911 64.7088 58.9281 65.2724 59.1533C65.8361 59.3784 66.4396 59.4872 67.0465 59.473C67.7461 59.476 68.4375 59.3229 69.0702 59.0248C69.703 58.7267 70.261 58.2911 70.7034 57.7499L71.7682 58.8134C71.2112 59.4754 70.5127 60.0045 69.7241 60.3615C68.8846 60.7471 67.9705 60.9432 67.0465 60.9358Z" fill="#5F6368"/>
<path d="M74.6614 48.7839V52.5354L74.594 53.6617H74.6614C74.9154 53.2448 75.2769 52.9038 75.7082 52.6745C76.1729 52.408 76.6999 52.2687 77.2356 52.2706C77.6663 52.2427 78.0977 52.3117 78.4982 52.4724C78.8986 52.6332 79.2578 52.8817 79.5493 53.1995C80.1087 53.9055 80.3914 54.7909 80.3445 55.6901V60.671H78.8171V55.9278C78.8171 54.4321 78.1461 53.6842 76.8044 53.6842C76.5051 53.6794 76.2089 53.7457 75.9402 53.8775C75.6716 54.0093 75.4381 54.2029 75.2589 54.4426C74.862 54.9386 74.6506 55.5575 74.6614 56.1926V60.68H73.1295V48.7839H74.6614Z" fill="#5F6368"/>
<path d="M83.6689 60.671H82.1414V52.5353H83.6105V53.8816H83.6779C83.8556 53.414 84.1951 53.0256 84.6349 52.7866C85.0538 52.5119 85.5401 52.3567 86.0409 52.3379C86.4326 52.3266 86.8225 52.3953 87.1866 52.5399L86.6025 53.9668C86.3406 53.8797 86.0653 53.8401 85.7894 53.8501C85.5125 53.852 85.239 53.9112 84.9861 54.024C84.7333 54.1368 84.5066 54.3007 84.3203 54.5053C84.1038 54.7345 83.9355 55.0046 83.8251 55.2998C83.7148 55.5949 83.6648 55.9092 83.6779 56.224L83.6689 60.671Z" fill="#5F6368"/>
<path d="M88.3906 53.5046C89.1913 52.7135 90.2721 52.2698 91.3983 52.2698C92.5246 52.2698 93.6054 52.7135 94.4061 53.5046C95.1668 54.357 95.587 55.459 95.587 56.6009C95.587 57.7428 95.1668 58.8448 94.4061 59.6972C93.6066 60.4905 92.5254 60.9357 91.3983 60.9357C90.2714 60.9357 89.1901 60.4905 88.3906 59.6972C87.63 58.8448 87.2096 57.7428 87.2096 56.6009C87.2096 55.459 87.63 54.357 88.3906 53.5046ZM89.5272 58.737C89.7682 58.9907 90.0584 59.1928 90.38 59.3309C90.7017 59.4691 91.0482 59.5403 91.3983 59.5403C91.7485 59.5403 92.095 59.4691 92.4167 59.3309C92.7384 59.1928 93.0286 58.9907 93.2695 58.737C93.78 58.143 94.0606 57.386 94.0606 56.6032C94.0606 55.8204 93.78 55.0634 93.2695 54.4694C93.0293 54.2145 92.7393 54.0113 92.4175 53.8724C92.0957 53.7335 91.7489 53.662 91.3983 53.662C91.0478 53.662 90.701 53.7335 90.3792 53.8724C90.0574 54.0113 89.7675 54.2145 89.5272 54.4694C89.0201 55.065 88.7418 55.8214 88.7418 56.6032C88.7418 57.385 89.0201 58.1413 89.5272 58.737Z" fill="#5F6368"/>
<path d="M96.8187 60.6711V52.5355H98.2832V53.6843H98.3461C98.6132 53.2686 98.9832 52.9285 99.4197 52.697C99.8562 52.4404 100.351 52.3013 100.858 52.2932C102.122 52.2932 102.979 52.8122 103.431 53.8503C103.723 53.3609 104.141 52.9582 104.641 52.6844C105.142 52.4106 105.706 52.2755 106.276 52.2932C106.684 52.2616 107.093 52.3263 107.472 52.4822C107.851 52.6382 108.187 52.8808 108.454 53.1906C108.975 53.9166 109.233 54.7981 109.187 55.6901V60.6711H107.655V55.9279C107.713 55.3116 107.555 54.6942 107.205 54.1824C107.032 54.0032 106.821 53.8643 106.589 53.7751C106.356 53.6859 106.107 53.6488 105.857 53.6663C105.566 53.6641 105.278 53.7328 105.019 53.8665C104.76 54.0001 104.538 54.1948 104.371 54.4337C103.982 54.9298 103.774 55.5443 103.782 56.1748V60.6622H102.25V55.9279C102.309 55.3116 102.149 54.6942 101.801 54.1824C101.627 54.0037 101.417 53.865 101.183 53.776C100.951 53.6868 100.701 53.6494 100.453 53.6663C100.161 53.6641 99.874 53.7328 99.6147 53.8665C99.3554 54.0001 99.1327 54.1948 98.9661 54.4337C98.5752 54.9294 98.366 55.5438 98.3731 56.1748V60.6622L96.8187 60.6711Z" fill="#5F6368"/>
<path d="M114.672 60.9357C114.113 60.9568 113.556 60.8579 113.038 60.6458C112.52 60.4337 112.054 60.1133 111.671 59.7062C110.89 58.8643 110.474 57.7478 110.516 56.6009C110.494 55.4799 110.893 54.3914 111.634 53.5496C111.988 53.1363 112.429 52.807 112.925 52.5858C113.422 52.3646 113.962 52.2569 114.506 52.2706C115.045 52.2465 115.583 52.3391 116.083 52.542C116.583 52.745 117.034 53.0534 117.403 53.4463C118.156 54.3151 118.547 55.4394 118.495 56.5875V56.8702H112.043C112.05 57.601 112.345 58.2996 112.866 58.8133C113.338 59.2758 113.974 59.5323 114.635 59.5267C115.112 59.5701 115.588 59.4574 115.993 59.2055C116.399 58.9536 116.711 58.5764 116.882 58.1311L118.23 58.6966C117.955 59.3416 117.5 59.8933 116.918 60.2851C116.256 60.7316 115.471 60.9592 114.672 60.9357ZM116.856 55.6227C116.808 55.1128 116.582 54.6358 116.217 54.2764C115.986 54.0537 115.709 53.8823 115.406 53.7732C115.104 53.6643 114.782 53.6201 114.46 53.6438C113.922 53.6346 113.398 53.8247 112.991 54.1778C112.563 54.5521 112.263 55.0511 112.133 55.6047L116.856 55.6227Z" fill="#5F6368"/>
<path d="M137.013 48.7839L133.837 60.671H132.274L129.713 52.8361H129.645L127.09 60.671H125.526L122.215 48.7839H123.815L126.321 58.1312H126.388L128.985 50.377H130.413L132.988 58.1312H133.028L135.405 48.7839H137.013Z" fill="#5F6368"/>
<path d="M140.984 60.9357C140.426 60.9568 139.869 60.8579 139.351 60.6458C138.833 60.4337 138.367 60.1133 137.983 59.7062C137.203 58.8643 136.788 57.7478 136.829 56.6009C136.805 55.4789 137.207 54.3893 137.953 53.5496C138.304 53.1359 138.744 52.8063 139.24 52.585C139.736 52.3637 140.276 52.2562 140.819 52.2706C141.357 52.2465 141.896 52.3391 142.396 52.542C142.896 52.745 143.347 53.0534 143.716 53.4463C144.469 54.3151 144.86 55.4394 144.808 56.5875V56.8702H138.356C138.362 57.601 138.658 58.2996 139.179 58.8133C139.651 59.2749 140.287 59.5313 140.949 59.5267C141.425 59.5709 141.902 59.4584 142.307 59.2064C142.712 58.9544 143.024 58.5768 143.195 58.1311L144.542 58.6966C144.265 59.341 143.808 59.8923 143.226 60.2851C142.566 60.7312 141.782 60.9589 140.984 60.9357ZM143.178 55.6227C143.13 55.1128 142.904 54.6358 142.539 54.2764C142.308 54.0537 142.031 53.8823 141.729 53.7732C141.426 53.6643 141.103 53.6201 140.782 53.6438C140.244 53.6354 139.721 53.8255 139.313 54.1778C138.885 54.5521 138.585 55.0511 138.455 55.6047L143.178 55.6227Z" fill="#5F6368"/>
<path d="M150.509 60.9358C149.927 60.9442 149.353 60.8069 148.838 60.5364C148.386 60.3102 148.004 59.966 147.732 59.5402H147.665V60.671H146.205V48.7839H147.732V52.5354L147.665 53.6617H147.732C148.007 53.2381 148.388 52.8944 148.838 52.6655C149.353 52.3964 149.928 52.2606 150.509 52.2706C151.026 52.2696 151.538 52.3801 152.008 52.5947C152.479 52.8091 152.898 53.1226 153.236 53.5137C153.975 54.3737 154.382 55.4698 154.382 56.6032C154.382 57.7367 153.975 58.8327 153.236 59.6928C152.898 60.0838 152.479 60.3973 152.008 60.6118C151.538 60.8263 151.026 60.9369 150.509 60.9358ZM150.257 59.5402C150.602 59.5431 150.942 59.473 151.258 59.3345C151.573 59.196 151.855 58.9924 152.085 58.737C152.582 58.1364 152.854 57.382 152.854 56.6032C152.854 55.8245 152.582 55.0701 152.085 54.4695C151.853 54.2161 151.57 54.0138 151.255 53.8753C150.94 53.737 150.599 53.6655 150.255 53.6655C149.911 53.6655 149.57 53.737 149.255 53.8753C148.94 54.0138 148.657 54.2161 148.424 54.4695C147.933 55.0758 147.665 55.8322 147.665 56.6121C147.665 57.3922 147.933 58.1486 148.424 58.7549C148.657 59.0076 148.941 59.2083 149.257 59.3436C149.572 59.479 149.914 59.5459 150.257 59.5402Z" fill="#5F6368"/>
<path d="M162.558 60.9358C161.646 60.9198 160.762 60.6238 160.024 60.0877C159.202 59.5306 158.622 58.682 158.402 57.7139L159.8 57.153C159.961 57.7964 160.318 58.3736 160.824 58.8044C161.297 59.2367 161.916 59.4753 162.558 59.473C163.169 59.4916 163.769 59.3085 164.265 58.9524C164.49 58.792 164.672 58.5788 164.795 58.3314C164.918 58.0842 164.978 57.8104 164.97 57.5344C164.985 57.2402 164.928 56.9469 164.805 56.679C164.682 56.4111 164.497 56.1766 164.265 55.9952C163.578 55.5378 162.819 55.1981 162.019 54.9901C161.132 54.7519 160.312 54.3128 159.625 53.7066C159.355 53.4451 159.145 53.1305 159.004 52.7827C158.864 52.435 158.798 52.0619 158.811 51.6873C158.808 51.2623 158.898 50.8418 159.073 50.4545C159.248 50.0672 159.505 49.7224 159.826 49.4436C160.549 48.7956 161.497 48.4558 162.468 48.4968C163.35 48.4585 164.218 48.7265 164.926 49.2551C165.493 49.6694 165.922 50.2448 166.156 50.9066L164.76 51.4898C164.631 51.0709 164.373 50.7033 164.022 50.4398C163.587 50.107 163.047 49.9372 162.5 49.9597C161.956 49.9473 161.426 50.1198 160.994 50.4488C160.801 50.5888 160.645 50.7724 160.537 50.9846C160.429 51.1967 160.374 51.4314 160.375 51.6694C160.374 51.8881 160.425 52.1039 160.524 52.2989C160.623 52.494 160.768 52.6627 160.945 52.7912C161.457 53.1603 162.028 53.4381 162.634 53.6124C163.133 53.7681 163.624 53.9509 164.103 54.1599C164.526 54.3543 164.928 54.5904 165.303 54.8644C165.692 55.1475 166.002 55.5262 166.202 55.9638C166.416 56.4401 166.522 56.9582 166.511 57.4805C166.519 58.0167 166.397 58.5468 166.152 59.0242C165.932 59.4588 165.606 59.8309 165.204 60.1057C164.416 60.6372 163.487 60.9202 162.536 60.9179L162.558 60.9358Z" fill="#5F6368"/>
<path d="M171.238 60.8012C170.884 60.8431 170.526 60.8049 170.189 60.6893C169.853 60.5737 169.547 60.3838 169.295 60.1336C169.042 59.8834 168.849 59.5793 168.731 59.2443C168.612 58.9092 168.57 58.5517 168.61 58.1985V53.931H167.172V52.5354H168.601V50.0449H170.132V52.5354H172.127V53.931H170.132V58.0818C170.132 58.9793 170.496 59.4281 171.229 59.4281C171.468 59.4352 171.706 59.3892 171.925 59.2935L172.46 60.6037C172.07 60.7506 171.654 60.8177 171.238 60.8012Z" fill="#5F6368"/>
<path d="M174.23 53.5046C175.03 52.7135 176.111 52.2698 177.238 52.2698C178.364 52.2698 179.445 52.7135 180.245 53.5046C181.006 54.357 181.426 55.459 181.426 56.6009C181.426 57.7428 181.006 58.8448 180.245 59.6972C179.446 60.4905 178.364 60.9357 177.238 60.9357C176.11 60.9357 175.029 60.4905 174.23 59.6972C173.469 58.8448 173.049 57.7428 173.049 56.6009C173.049 55.459 173.469 54.357 174.23 53.5046ZM175.366 58.737C175.607 58.9907 175.897 59.1928 176.219 59.3309C176.541 59.4691 176.887 59.5403 177.238 59.5403C177.587 59.5403 177.934 59.4691 178.256 59.3309C178.578 59.1928 178.868 58.9907 179.108 58.737C179.619 58.143 179.899 57.386 179.899 56.6032C179.899 55.8204 179.619 55.0634 179.108 54.4694C178.868 54.2145 178.578 54.0113 178.256 53.8724C177.934 53.7335 177.588 53.662 177.238 53.662C176.887 53.662 176.54 53.7335 176.218 53.8724C175.896 54.0113 175.606 54.2145 175.366 54.4694C174.859 55.065 174.581 55.8214 174.581 56.6032C174.581 57.385 174.859 58.1413 175.366 58.737Z" fill="#5F6368"/>
<path d="M184.185 60.6711H182.658V52.5354H184.118V53.8816H184.185C184.361 53.4134 184.701 53.0244 185.142 52.7867C185.56 52.5121 186.044 52.3569 186.543 52.338C186.936 52.3262 187.328 52.3949 187.694 52.54L187.11 53.9669C186.847 53.8801 186.572 53.8406 186.296 53.8502C186.019 53.852 185.745 53.9112 185.491 54.0239C185.238 54.1367 185.01 54.3006 184.823 54.5054C184.607 54.7349 184.439 55.0052 184.33 55.3004C184.22 55.5955 184.171 55.9096 184.185 56.2241V60.6711Z" fill="#5F6368"/>
<path d="M191.88 60.9357C191.321 60.9562 190.765 60.857 190.247 60.645C189.73 60.4329 189.263 60.1128 188.879 59.7062C188.1 58.8633 187.686 57.7474 187.725 56.6009C187.701 55.4789 188.102 54.3892 188.848 53.5495C189.2 53.1359 189.639 52.8063 190.136 52.585C190.632 52.3636 191.172 52.2562 191.714 52.2705C192.254 52.2467 192.793 52.3394 193.294 52.5422C193.795 52.7451 194.246 53.0534 194.616 53.4463C195.368 54.3157 195.757 55.44 195.704 56.5874V56.8701H189.275C189.276 57.2323 189.349 57.5906 189.49 57.9242C189.632 58.2578 189.837 58.56 190.097 58.8132C190.33 59.0425 190.607 59.2237 190.911 59.3461C191.214 59.4685 191.54 59.5299 191.867 59.5266C192.343 59.5716 192.821 59.4594 193.225 59.2073C193.631 58.9552 193.943 58.5771 194.113 58.1311L195.461 58.6965C195.185 59.3406 194.73 59.892 194.149 60.285C193.481 60.7352 192.687 60.963 191.88 60.9357ZM194.073 55.6227C194.028 55.1121 193.802 54.6344 193.435 54.2764C193.204 54.054 192.928 53.8828 192.627 53.7737C192.325 53.6647 192.003 53.6204 191.683 53.6437C191.143 53.6355 190.618 53.8254 190.21 54.1777C189.781 54.5515 189.482 55.051 189.355 55.6047L194.073 55.6227Z" fill="#5F6368"/>
<path d="M61.7498 42.2143L65.1462 33.217H66.4535L69.8499 42.2143H68.565L67.698 39.7731H63.9108L63.0123 42.2098L61.7498 42.2143ZM64.2926 38.6962H67.2846L65.8156 34.6575H65.7662L64.2926 38.6962Z" fill="#5F6368"/>
<path d="M71.9303 42.2144L69.4414 36.0576H70.6993L72.4963 40.8323L74.3338 36.0576H75.5692L73.0534 42.2144H71.9303Z" fill="#5F6368"/>
<path d="M78.1656 42.4164C77.5666 42.4361 76.9814 42.2348 76.5214 41.851C76.3051 41.6673 76.1332 41.4369 76.0188 41.1773C75.9044 40.9178 75.8505 40.6356 75.861 40.3521C75.8498 40.0454 75.9154 39.7407 76.0519 39.4656C76.1884 39.1905 76.3915 38.9539 76.6427 38.7771C77.2042 38.3826 77.8795 38.1825 78.5655 38.2072C79.1475 38.1846 79.7251 38.3146 80.2412 38.5841V38.4271C80.2508 38.2242 80.2156 38.0217 80.1379 37.8341C80.0603 37.6464 79.9422 37.478 79.7919 37.3412C79.4741 37.0677 79.0657 36.9221 78.6464 36.9328C78.3312 36.932 78.0213 37.014 77.7479 37.1706C77.4885 37.3139 77.2905 37.5469 77.1908 37.8257L76.1306 37.3771C76.3114 36.9641 76.6039 36.6099 76.9751 36.354C77.4652 36.0268 78.0491 35.8692 78.6374 35.9052C79.3544 35.8793 80.0545 36.1262 80.5961 36.5963C80.8619 36.8434 81.0698 37.1461 81.2049 37.4827C81.34 37.8194 81.3991 38.1817 81.3778 38.5437V42.2638H80.2412V41.4067H80.1873C79.9698 41.7384 79.668 42.0066 79.3129 42.184C78.9578 42.3614 78.5619 42.4416 78.1656 42.4164ZM78.3544 41.3574C78.8404 41.3557 79.3064 41.164 79.6527 40.8234C79.8365 40.6684 79.9843 40.4754 80.086 40.2576C80.1876 40.0399 80.2406 39.8026 80.2412 39.5624C79.8112 39.2623 79.2907 39.1197 78.7677 39.1586C78.3134 39.125 77.8623 39.2556 77.4963 39.5265C77.3654 39.6273 77.259 39.7563 77.1852 39.904C77.1112 40.0516 77.0717 40.2141 77.0695 40.3791C77.0671 40.5223 77.1018 40.6636 77.1703 40.7894C77.2388 40.9153 77.3388 41.0212 77.4603 41.097C77.7249 41.2728 78.0368 41.3636 78.3544 41.3574Z" fill="#5F6368"/>
<path d="M83.9115 34.5095C83.7779 34.6436 83.6019 34.7272 83.4136 34.746C83.2252 34.7649 83.0361 34.7179 82.8786 34.613C82.721 34.5082 82.6047 34.352 82.5497 34.171C82.4946 33.9901 82.5041 33.7957 82.5765 33.621C82.649 33.4462 82.7798 33.302 82.9468 33.213C83.1139 33.1239 83.3067 33.0955 83.4922 33.1326C83.6779 33.1696 83.8449 33.2699 83.9648 33.4163C84.0847 33.5626 84.1499 33.746 84.1495 33.9351C84.1516 34.0421 84.1315 34.1483 84.0906 34.2472C84.0496 34.346 83.9886 34.4353 83.9115 34.5095ZM83.9115 42.2144H82.7568V36.0576H83.9115V42.2144Z" fill="#5F6368"/>
<path d="M86.5801 42.2143H85.4075V33.217H86.5666L86.5801 42.2143Z" fill="#5F6368"/>
<path d="M89.8732 42.4164C89.2756 42.4354 88.692 42.2341 88.2334 41.8509C88.017 41.6672 87.8452 41.4369 87.7308 41.1774C87.6164 40.9178 87.5624 40.6356 87.573 40.3521C87.5617 40.0454 87.6274 39.7406 87.7639 39.4656C87.9003 39.1905 88.1034 38.9539 88.3546 38.7771C88.9161 38.3826 89.5915 38.1824 90.2775 38.2072C90.8581 38.1842 91.4344 38.3142 91.9487 38.5841V38.4271C91.9586 38.2242 91.9235 38.0216 91.8458 37.8338C91.7682 37.6461 91.6499 37.4778 91.4995 37.3411C91.1816 37.0677 90.7733 36.9221 90.3539 36.9327C90.0386 36.932 89.7288 37.014 89.4554 37.1706C89.1959 37.315 88.9967 37.5474 88.8938 37.8257L87.8381 37.3771C88.0172 36.9631 88.31 36.6084 88.6827 36.3539C89.1714 36.0278 89.7536 35.8702 90.3404 35.9052C91.0588 35.8789 91.7604 36.1259 92.3036 36.5962C92.5694 36.8434 92.7773 37.146 92.9125 37.4827C93.0476 37.8194 93.1066 38.1816 93.0854 38.5437V42.2638H91.9756V41.4067H91.9262C91.704 41.7413 91.3968 42.0111 91.0361 42.1884C90.6755 42.3658 90.2742 42.4444 89.8732 42.4164ZM90.0618 41.3573C90.5493 41.3558 91.0167 41.1642 91.3646 40.8233C91.548 40.6681 91.695 40.4749 91.7959 40.2572C91.8967 40.0394 91.9489 39.8023 91.9487 39.5624C91.5211 39.2609 91.0015 39.1181 90.4797 39.1585C90.0253 39.1242 89.5738 39.2549 89.2083 39.5264C89.0725 39.6242 88.9613 39.7521 88.8833 39.9001C88.8054 40.048 88.7628 40.212 88.7591 40.3791C88.7567 40.5223 88.7913 40.6636 88.8598 40.7895C88.9283 40.9153 89.0283 41.0212 89.1498 41.097C89.419 41.2772 89.7381 41.3682 90.0618 41.3573Z" fill="#5F6368"/>
<path d="M97.6226 42.4162C97.1829 42.4224 96.7486 42.3174 96.3603 42.1111C96.0176 41.9412 95.7285 41.6804 95.5247 41.3572H95.4708V42.2143H94.3656V33.217H95.5247V36.0575L95.4708 36.9101H95.5247C95.7311 36.5891 96.0196 36.3288 96.3603 36.1563C96.7491 35.9515 97.1833 35.8481 97.6226 35.8556C98.0143 35.8536 98.4016 35.9369 98.7577 36.0997C99.1138 36.2624 99.4306 36.5008 99.6849 36.798C100.244 37.4489 100.551 38.2782 100.551 39.1359C100.551 39.9936 100.244 40.823 99.6849 41.4739C99.4306 41.7711 99.1138 42.0094 98.7577 42.1722C98.4016 42.3349 98.0143 42.4182 97.6226 42.4162ZM97.434 41.3572C97.6944 41.3597 97.9523 41.3069 98.1909 41.2025C98.4294 41.0981 98.643 40.9443 98.8177 40.7513C99.192 40.2961 99.3969 39.7251 99.3969 39.1359C99.3969 38.5467 99.192 37.9757 98.8177 37.5204C98.6414 37.3288 98.4271 37.1759 98.1886 37.0712C97.9501 36.9665 97.6923 36.9125 97.4317 36.9125C97.1712 36.9125 96.9135 36.9665 96.6749 37.0712C96.4363 37.1759 96.2221 37.3288 96.0458 37.5204C95.6737 37.9786 95.4707 38.5505 95.4707 39.1404C95.4707 39.7303 95.6737 40.3023 96.0458 40.7603C96.2214 40.9527 96.4361 41.1054 96.6754 41.2083C96.9149 41.3113 97.1735 41.362 97.434 41.3572Z" fill="#5F6368"/>
<path d="M102.704 42.2143H101.55V33.217H102.704V42.2143Z" fill="#5F6368"/>
<path d="M106.846 42.4162C106.422 42.4321 106 42.3569 105.608 42.1959C105.216 42.0349 104.862 41.7917 104.572 41.4829C103.983 40.8464 103.67 40.0026 103.701 39.1359C103.684 38.2863 103.987 37.4612 104.551 36.8249C104.817 36.5117 105.15 36.2621 105.526 36.0944C105.901 35.9267 106.309 35.845 106.72 35.8556C107.129 35.8381 107.537 35.9093 107.915 36.0642C108.293 36.2192 108.634 36.4541 108.913 36.7532C109.486 37.4127 109.782 38.268 109.739 39.1404V39.3513H104.856C104.861 39.9051 105.085 40.4342 105.48 40.8232C105.658 40.9974 105.869 41.1347 106.101 41.227C106.331 41.3195 106.579 41.3652 106.828 41.3616C107.185 41.3922 107.543 41.3058 107.847 41.1157C108.15 40.9254 108.384 40.6417 108.513 40.3071L109.546 40.7334C109.336 41.2208 108.992 41.6381 108.553 41.9361C108.049 42.2709 107.452 42.4389 106.846 42.4162ZM108.504 38.3776C108.468 37.9952 108.296 37.6385 108.019 37.3724C107.842 37.2004 107.63 37.0686 107.397 36.9858C107.165 36.9029 106.916 36.871 106.671 36.8922C106.262 36.8851 105.865 37.0289 105.556 37.2961C105.233 37.5798 105.006 37.9582 104.91 38.3776H108.504Z" fill="#5F6368"/>
<path d="M114.821 34.5094C114.667 34.663 114.459 34.7494 114.243 34.7499C114.025 34.7503 113.817 34.6646 113.663 34.5117C113.51 34.3587 113.423 34.1511 113.423 33.9344C113.422 33.7177 113.508 33.5097 113.662 33.3562C113.815 33.2033 114.024 33.1174 114.241 33.1174C114.457 33.1174 114.666 33.2033 114.821 33.3562C114.973 33.5093 115.059 33.7166 115.059 33.9328C115.059 34.149 114.973 34.3563 114.821 34.5094ZM114.821 42.2143H113.662V36.0576H114.821V42.2143Z" fill="#5F6368"/>
<path d="M117.435 36.0575V36.9102H117.484C117.677 36.5943 117.951 36.3367 118.28 36.1653C118.63 35.9614 119.028 35.8545 119.434 35.8556C119.76 35.8339 120.086 35.886 120.389 36.008C120.691 36.1301 120.962 36.3187 121.182 36.5601C121.607 37.0869 121.826 37.7506 121.797 38.427V42.1963H120.629V38.6064C120.629 37.4666 120.122 36.8967 119.106 36.8967C118.88 36.8928 118.656 36.9429 118.452 37.0428C118.249 37.1426 118.073 37.2895 117.938 37.4711C117.639 37.8473 117.481 38.315 117.489 38.7948V42.2009H116.334V36.0575H117.435Z" fill="#5F6368"/>
<path d="M128.58 42.313C128.314 42.3433 128.043 42.3134 127.789 42.2254C127.535 42.1373 127.304 41.9935 127.113 41.8044C126.922 41.6154 126.776 41.386 126.686 41.1331C126.595 40.8801 126.562 40.6102 126.591 40.343V37.1121H125.508V36.0575H126.591V34.1729H127.75V36.0575H129.259V37.1121H127.75V40.2533C127.75 40.9219 128.028 41.2585 128.58 41.2585C128.761 41.2647 128.941 41.231 129.107 41.1597L129.511 42.1515C129.215 42.2672 128.898 42.3222 128.58 42.313Z" fill="#5F6368"/>
<path d="M131.586 33.217V36.0575L131.537 36.9101H131.586C131.777 36.5944 132.051 36.3369 132.377 36.1652C132.729 35.9608 133.129 35.8539 133.536 35.8556C133.862 35.8342 134.188 35.8865 134.49 36.0084C134.793 36.1305 135.064 36.319 135.284 36.5601C135.709 37.0933 135.924 37.7641 135.886 38.4449V42.2143H134.731V38.6243C134.731 37.4846 134.223 36.9147 133.209 36.9147C132.982 36.9107 132.758 36.9608 132.554 37.0607C132.351 37.1606 132.175 37.3074 132.04 37.489C131.74 37.8642 131.58 38.3326 131.591 38.8129V42.2188H130.432V33.217H131.586Z" fill="#5F6368"/>
<path d="M140.037 42.4163C139.613 42.4318 139.193 42.3565 138.801 42.1954C138.41 42.0344 138.057 41.7915 137.768 41.483C137.178 40.847 136.862 40.0032 136.892 39.136C136.874 38.2864 137.178 37.4613 137.741 36.825C138.007 36.5119 138.341 36.2622 138.716 36.0945C139.092 35.9268 139.5 35.8451 139.911 35.8557C140.32 35.8378 140.729 35.9088 141.108 36.0638C141.487 36.2187 141.828 36.454 142.108 36.7533C142.68 37.4132 142.975 38.2686 142.93 39.1405V39.3514H138.052C138.052 39.6258 138.109 39.8972 138.216 40.1498C138.323 40.4024 138.479 40.6313 138.675 40.8233C138.853 40.9975 139.064 41.1348 139.296 41.2271C139.527 41.3196 139.774 41.3653 140.023 41.3617C140.38 41.3923 140.738 41.3059 141.042 41.1157C141.346 40.9256 141.58 40.6418 141.708 40.3072L142.741 40.7335C142.531 41.222 142.186 41.6396 141.744 41.9362C141.24 42.2722 140.643 42.4403 140.037 42.4163ZM141.699 38.3777C141.659 37.9965 141.487 37.6412 141.214 37.3725C141.037 37.201 140.825 37.0695 140.592 36.9867C140.36 36.9038 140.112 36.8716 139.866 36.8923C139.458 36.8852 139.061 37.029 138.752 37.2962C138.428 37.5799 138.202 37.9583 138.105 38.3777H141.699Z" fill="#5F6368"/>
<mask id="mask0_84_172" style="mask-type:luminance" maskUnits="userSpaceOnUse" x="0" y="25" width="50" height="44">
<path d="M0 25.6694V65.0105C0.0035559 65.9039 0.360781 66.7597 0.993712 67.3911C1.62664 68.0224 2.48386 68.3782 3.37837 68.3805H46.1384C47.0328 68.3782 47.8901 68.0224 48.523 67.3911C49.1559 66.7597 49.5132 65.9039 49.5167 65.0105V25.6694H0ZM30.3831 34.6442H19.1517C18.556 34.6442 17.9846 34.4078 17.5633 33.9871C17.1421 33.5663 16.9054 32.9956 16.9054 32.4005C16.9054 31.8055 17.1421 31.2348 17.5633 30.814C17.9846 30.3932 18.556 30.1568 19.1517 30.1568H30.3831C30.9788 30.1568 31.5501 30.3932 31.9713 30.814C32.3926 31.2348 32.6292 31.8055 32.6292 32.4005C32.6292 32.9956 32.3926 33.5663 31.9713 33.9871C31.5501 34.4078 30.9788 34.6442 30.3831 34.6442Z" fill="white"/>
</mask>
<g mask="url(#mask0_84_172)">
<path d="M0 25.6694H49.5167V68.3805H0V25.6694Z" fill="#EEEEEE"/>
</g>
<mask id="mask1_84_172" style="mask-type:luminance" maskUnits="userSpaceOnUse" x="0" y="25" width="50" height="44">
<path d="M0 25.6694V65.0105C0.0035559 65.9039 0.360781 66.7597 0.993712 67.3911C1.62664 68.0224 2.48386 68.3782 3.37837 68.3805H46.1384C47.0328 68.3782 47.8901 68.0224 48.523 67.3911C49.1559 66.7597 49.5132 65.9039 49.5167 65.0105V25.6694H0ZM30.3831 34.6442H19.1517C18.556 34.6442 17.9846 34.4078 17.5633 33.9871C17.1421 33.5663 16.9054 32.9956 16.9054 32.4005C16.9054 31.8055 17.1421 31.2348 17.5633 30.814C17.9846 30.3932 18.556 30.1568 19.1517 30.1568H30.3831C30.9788 30.1568 31.5501 30.3932 31.9713 30.814C32.3926 31.2348 32.6292 31.8055 32.6292 32.4005C32.6292 32.9956 32.3926 33.5663 31.9713 33.9871C31.5501 34.4078 30.9788 34.6442 30.3831 34.6442Z" fill="white"/>
</mask>
<g mask="url(#mask1_84_172)">
<path d="M30.3829 30.1658H19.1517C18.5559 30.1658 17.9845 30.4022 17.5633 30.8229C17.1421 31.2437 16.9054 31.8144 16.9054 32.4095C16.9054 33.0045 17.1421 33.5752 17.5633 33.996C17.9845 34.4168 18.5559 34.6532 19.1517 34.6532H30.3829C30.9787 34.6532 31.5501 34.4168 31.9713 33.996C32.3926 33.5752 32.6292 33.0045 32.6292 32.4095C32.6292 31.8144 32.3926 31.2437 31.9713 30.8229C31.5501 30.4022 30.9787 30.1658 30.3829 30.1658Z" fill="white"/>
</g>
<mask id="mask2_84_172" style="mask-type:luminance" maskUnits="userSpaceOnUse" x="0" y="25" width="50" height="44">
<path d="M0 25.6694V65.0105C0.0035559 65.9039 0.360781 66.7597 0.993712 67.3911C1.62664 68.0224 2.48386 68.3782 3.37837 68.3805H46.1384C47.0328 68.3782 47.8901 68.0224 48.523 67.3911C49.1559 66.7597 49.5132 65.9039 49.5167 65.0105V25.6694H0ZM30.3831 34.6442H19.1517C18.556 34.6442 17.9846 34.4078 17.5633 33.9871C17.1421 33.5663 16.9054 32.9956 16.9054 32.4005C16.9054 31.8055 17.1421 31.2348 17.5633 30.814C17.9846 30.3932 18.556 30.1568 19.1517 30.1568H30.3831C30.9788 30.1568 31.5501 30.3932 31.9713 30.814C32.3926 31.2348 32.6292 31.8055 32.6292 32.4005C32.6292 32.9956 32.3926 33.5663 31.9713 33.9871C31.5501 34.4078 30.9788 34.6442 30.3831 34.6442Z" fill="white"/>
</mask>
<g mask="url(#mask2_84_172)">
<mask id="mask3_84_172" style="mask-type:luminance" maskUnits="userSpaceOnUse" x="3" y="43" width="44" height="44">
<mask id="mask4_84_172" style="mask-type:luminance" maskUnits="userSpaceOnUse" x="3" y="43" width="44" height="44">
<path d="M24.7584 86.3661C36.5663 86.3661 46.1384 76.8049 46.1384 65.0106C46.1384 53.2162 36.5663 43.655 24.7584 43.655C12.9506 43.655 3.37842 53.2162 3.37842 65.0106C3.37842 76.8049 12.9506 86.3661 24.7584 86.3661Z" fill="white"/>
</mask>
<g mask="url(#mask4_84_172)">
<path d="M24.7584 86.3661C36.5663 86.3661 46.1384 76.8049 46.1384 65.0106C46.1384 53.2162 36.5663 43.655 24.7584 43.655C12.9506 43.655 3.37842 53.2162 3.37842 65.0106C3.37842 76.8049 12.9506 86.3661 24.7584 86.3661Z" fill="white"/>
</g>
</mask>
<g mask="url(#mask3_84_172)">
<path d="M6.78827 43.6549V69.8613H16.3528L24.7584 55.2997H46.1384V43.6326L6.78827 43.6549ZM6.78827 43.6549V69.8613H16.3528L24.7584 55.2997H46.1384V43.6326L6.78827 43.6549Z" fill="#DB4437"/>
<path d="M3.37842 86.3659H23.7296L33.1639 76.9424V69.8657H16.3394L3.37842 47.6621V86.3659ZM3.37842 86.3659H23.7296L33.1639 76.9424V69.8657H16.3394L3.37842 47.6621V86.3659Z" fill="#0F9D58"/>
<path d="M24.7584 55.2998L33.1774 69.8614L23.743 86.3661H46.1518V55.2998H24.7584ZM24.7584 55.2998L33.1774 69.8614L23.743 86.3661H46.1518V55.2998H24.7584Z" fill="#FFCD40"/>
<path d="M24.7583 74.7213C30.1276 74.7213 34.4802 70.3736 34.4802 65.0106C34.4802 59.6475 30.1276 55.2998 24.7583 55.2998C19.3891 55.2998 15.0365 59.6475 15.0365 65.0106C15.0365 70.3736 19.3891 74.7213 24.7583 74.7213Z" fill="#F1F1F1"/>
<path d="M24.7585 72.7783C29.0533 72.7783 32.535 69.3005 32.535 65.0106C32.535 60.7206 29.0533 57.2429 24.7585 57.2429C20.4635 57.2429 16.9818 60.7206 16.9818 65.0106C16.9818 69.3005 20.4635 72.7783 24.7585 72.7783Z" fill="#4285F4"/>
</g>
<mask id="mask5_84_172" style="mask-type:luminance" maskUnits="userSpaceOnUse" x="0" y="25" width="50" height="44">
<path d="M0 25.6694V65.0104C0.0035559 65.9039 0.360781 66.7598 0.993712 67.3911C1.62664 68.0224 2.48386 68.3781 3.37837 68.3805H46.1384C47.0328 68.3781 47.8901 68.0224 48.523 67.3911C49.1559 66.7598 49.5132 65.9039 49.5167 65.0104V25.6694H0ZM30.3831 34.6442H19.1517C18.556 34.6442 17.9846 34.4078 17.5633 33.9871C17.1421 33.5663 16.9054 32.9956 16.9054 32.4005C16.9054 31.8055 17.1421 31.2348 17.5633 30.814C17.9846 30.3932 18.556 30.1568 19.1517 30.1568H30.3831C30.9788 30.1568 31.5501 30.3932 31.9713 30.814C32.3926 31.2348 32.6292 31.8055 32.6292 32.4005C32.6292 32.9956 32.3926 33.5663 31.9713 33.9871C31.5501 34.4078 30.9788 34.6442 30.3831 34.6442Z" fill="white"/>
</mask>
<g mask="url(#mask5_84_172)">
<path d="M0 25.6694H49.5167V47.025H0V25.6694Z" fill="#212121" fill-opacity="0.05"/>
</g>
<path d="M0 46.7468H49.5167V47.0251H0V46.7468Z" fill="#212121" fill-opacity="0.02"/>
<path d="M0 47.0249H49.5167V47.3076H0V47.0249Z" fill="white" fill-opacity="0.05"/>
<path d="M30.3831 34.6623H19.1517C18.5785 34.6633 18.0267 34.4455 17.6091 34.0534C17.1916 33.6613 16.9398 33.1247 16.9054 32.5532C16.901 32.601 16.901 32.6491 16.9054 32.6968C16.9054 33.2919 17.1421 33.8626 17.5633 34.2833C17.9846 34.7041 18.556 34.9405 19.1517 34.9405H30.3831C30.9788 34.9405 31.5501 34.7041 31.9713 34.2833C32.3926 33.8626 32.6292 33.2919 32.6292 32.6968C32.6337 32.6491 32.6337 32.601 32.6292 32.5532C32.5949 33.1247 32.3431 33.6613 31.9255 34.0534C31.5079 34.4455 30.9561 34.6633 30.3831 34.6623ZM0 25.6875V25.9702H49.5167V25.6875H0Z" fill="#212121" fill-opacity="0.02"/>
<path d="M19.1337 30.1659H30.365C30.9381 30.1649 31.49 30.3827 31.9076 30.7748C32.3252 31.1669 32.5769 31.7036 32.6113 32.275C32.6113 32.2256 32.6113 32.1808 32.6113 32.1314C32.6113 31.5363 32.3747 30.9656 31.9534 30.5449C31.5322 30.1241 30.9608 29.8877 30.365 29.8877H19.1337C18.5379 29.8877 17.9666 30.1241 17.5453 30.5449C17.1241 30.9656 16.8874 31.5363 16.8874 32.1314C16.8829 32.1792 16.8829 32.2272 16.8874 32.275C16.9218 31.7036 17.1735 31.1669 17.5911 30.7748C18.0087 30.3827 18.5606 30.1649 19.1337 30.1659ZM46.1384 68.1024H3.37837C2.48309 68.1 1.62518 67.7437 0.992118 67.1113C0.359063 66.4791 0.0023716 65.6221 0 64.7279V65.0106C0.0035559 65.904 0.360781 66.7599 0.993712 67.3912C1.62664 68.0225 2.48386 68.3783 3.37837 68.3806H46.1384C47.0328 68.3783 47.8901 68.0225 48.523 67.3912C49.1559 66.7599 49.5132 65.904 49.5167 65.0106V64.7279C49.5144 65.6221 49.1577 66.4791 48.5246 67.1113C47.8915 67.7437 47.0336 68.1 46.1384 68.1024Z" fill="#231F20" fill-opacity="0.1"/>
<path d="M0 25.6694V65.0105C0.0035559 65.9039 0.360781 66.7597 0.993712 67.3911C1.62664 68.0224 2.48386 68.3782 3.37837 68.3805H46.1384C47.0328 68.3782 47.8901 68.0224 48.523 67.3911C49.1559 66.7597 49.5132 65.9039 49.5167 65.0105V25.6694H0ZM30.3831 34.6442H19.1517C18.556 34.6442 17.9846 34.4078 17.5633 33.9871C17.1421 33.5663 16.9054 32.9956 16.9054 32.4005C16.9054 31.8055 17.1421 31.2348 17.5633 30.814C17.9846 30.3932 18.556 30.1568 19.1517 30.1568H30.3831C30.9788 30.1568 31.5501 30.3932 31.9713 30.814C32.3926 31.2348 32.6292 31.8055 32.6292 32.4005C32.6292 32.9956 32.3926 33.5663 31.9713 33.9871C31.5501 34.4078 30.9788 34.6442 30.3831 34.6442Z" fill="url(#paint0_radial_84_172)"/>
</g>
</g>
<defs>
<radialGradient id="paint0_radial_84_172" cx="0" cy="0" r="1" gradientUnits="userSpaceOnUse" gradientTransform="translate(-0.138144 25.4866) scale(64.0276 63.9544)">
<stop stop-color="white" stop-opacity="0.1"/>
<stop offset="1" stop-color="white" stop-opacity="0"/>
</radialGradient>
<clipPath id="clip0_84_172">
<rect width="195.975" height="43.55" fill="white" transform="translate(0 25)"/>
</clipPath>
</defs>
</svg>
