<svg width="16" height="17" viewBox="0 0 16 17" fill="none" xmlns="http://www.w3.org/2000/svg">
<path d="M13.4147 9.16887H8.08525C7.70137 9.16887 7.39018 8.85767 7.39018 8.47379V3.14434C7.39018 2.98453 7.26062 2.85498 7.10081 2.85498C3.45394 2.85498 0.497559 5.81136 0.497559 9.45823C0.497559 13.1051 3.45394 16.0615 7.10081 16.0615C10.7477 16.0615 13.7041 13.1051 13.7041 9.45823C13.7041 9.29842 13.5745 9.16887 13.4147 9.16887Z" fill="#6E7191"/>
<path d="M9.13031 0.769775C8.96915 0.769775 8.8385 0.900421 8.8385 1.06158V7.42876C8.8385 7.58992 8.96915 7.72057 9.13031 7.72057H15.4975C15.6586 7.72057 15.7893 7.58992 15.7893 7.42876C15.7861 3.75244 12.8066 0.772993 9.13031 0.769775Z" fill="#6E7191"/>
</svg>
