<svg width="22" height="18" viewBox="0 0 22 18" fill="none" xmlns="http://www.w3.org/2000/svg">
<path fill-rule="evenodd" clip-rule="evenodd" d="M7.49492 1.96948C7.71959 1.96948 7.93507 2.04271 8.09394 2.17307C8.25281 2.30342 8.34207 2.48022 8.34207 2.66456V3.35964H13.425V2.66456C13.425 2.48022 13.5142 2.30342 13.6731 2.17307C13.832 2.04271 14.0475 1.96948 14.2721 1.96948C14.4968 1.96948 14.7123 2.04271 14.8712 2.17307C15.03 2.30342 15.1193 2.48022 15.1193 2.66456V3.35964H15.9664C16.6405 3.35964 17.2869 3.57934 17.7635 3.97039C18.2401 4.36145 18.5079 4.89184 18.5079 5.44488V6.13996H3.25916V5.44488C3.25916 4.89184 3.52692 4.36145 4.00353 3.97039C4.48015 3.57934 5.12658 3.35964 5.80061 3.35964H6.64776V2.66456C6.64776 2.48022 6.73702 2.30342 6.89589 2.17307C7.05476 2.04271 7.27024 1.96948 7.49492 1.96948ZM3.25916 7.53012V13.7858C3.25916 14.3389 3.52692 14.8693 4.00353 15.2603C4.48015 15.6514 5.12658 15.8711 5.80061 15.8711H15.9664C16.6405 15.8711 17.2869 15.6514 17.7635 15.2603C18.2401 14.8693 18.5079 14.3389 18.5079 13.7858V7.53012H3.25916Z" fill="#6E7191"/>
</svg>
