<svg width="474" height="88" viewBox="0 0 474 88" fill="none" xmlns="http://www.w3.org/2000/svg">
<path d="M237 1.50001C302.383 1.50001 361.537 6.421 404.311 14.3621C425.71 18.3349 442.934 23.0503 454.772 28.2467C460.697 30.8473 465.189 33.5326 468.177 36.2434C471.169 38.9576 472.5 41.5509 472.5 44C472.5 46.4491 471.169 49.0424 468.177 51.7566C465.189 54.4673 460.697 57.1527 454.772 59.7533C442.934 64.9497 425.71 69.665 404.311 73.6379C361.537 81.579 302.383 86.5 237 86.5C171.617 86.5 112.463 81.579 69.6895 73.6379C48.2903 69.6651 31.0663 64.9497 19.2275 59.7533C13.3028 57.1527 8.81069 54.4674 5.8229 51.7566C2.83125 49.0424 1.5 46.4491 1.5 44C1.5 41.5509 2.83125 38.9576 5.8229 36.2434C8.81069 33.5327 13.3028 30.8473 19.2275 28.2467C31.0663 23.0503 48.2903 18.335 69.6895 14.3621C112.463 6.42101 171.617 1.50002 237 1.50001Z" stroke="#6E1DE6" stroke-width="3"/>
</svg>
