<svg width="15" height="15" viewBox="0 0 15 15" fill="none" xmlns="http://www.w3.org/2000/svg">
<g clip-path="url(#clip0_149_325)">
<path d="M8.69328 4.65108C8.69328 6.25058 7.39658 7.54718 5.79708 7.54718C4.19758 7.54718 2.90088 6.25058 2.90088 4.65108C2.90088 3.05158 4.19758 1.75488 5.79708 1.75488C7.39658 1.75488 8.69328 3.05158 8.69328 4.65108Z" fill="#6E7191"/>
<path d="M8.25837 8.70557H3.33482C1.81783 8.70557 0.583496 9.9399 0.583496 11.4569V13.4842C0.583496 13.724 0.778117 13.9187 1.01792 13.9187H10.5753C10.8151 13.9187 11.0097 13.724 11.0097 13.4842V11.4569C11.0097 9.9399 9.77535 8.70557 8.25837 8.70557Z" fill="#6E7191"/>
<path d="M14.3468 6.64937L12.3194 4.7669C12.2377 4.69096 12.1311 4.65161 12.024 4.65161C11.7367 4.65161 11.589 4.89608 11.589 5.08551V6.38878H9.27207C8.95177 6.38878 8.69287 6.6482 8.69287 6.96798C8.69287 7.28775 8.95177 7.54717 9.27207 7.54717H11.589V8.85045C11.589 9.09142 11.7848 9.28487 12.0234 9.28487C12.1311 9.28487 12.2372 9.24499 12.3194 9.16905L14.3468 7.28658C14.4348 7.20428 14.4852 7.08846 14.4852 6.96798C14.4852 6.84749 14.4348 6.73167 14.3468 6.64937Z" fill="#6E7191"/>
</g>
<defs>
<clipPath id="clip0_149_325">
<rect width="13.9016" height="13.9016" fill="white" transform="translate(0.583496 0.885986)"/>
</clipPath>
</defs>
</svg>
